<?xml version="1.0" standalone="no"?> <!DOCTYPE svg PUBLIC "-//W3C//DTD SVG 1.0//EN" "http://www.w3.org/TR/2001/REC-SVG-20010904/DTD/svg10.dtd" > <svg xmlns="http://www.w3.org/2000/svg" width="100%" height="100%">
<defs >
<font id="ChunkFive" horiz-adv-x="593" ><font-face
    font-family="ChunkFive"
    units-per-em="1000"
    panose-1="0 0 0 0 0 0 0 0 0 0"
    ascent="815"
    descent="-230"
    alphabetic="0" />
<missing-glyph horiz-adv-x="280" />
<glyph unicode=" " glyph-name="space" horiz-adv-x="250" />
<glyph unicode="!" glyph-name="exclam" horiz-adv-x="308" d="M28 102Q28 121 35 140T58 174T94 198T142 208Q169 208 190 200T228 177T252 143T261 102Q261 60 229 30T142 -1Q118 -1 97 8T61 31T37 63T28 102ZM32 509V699H271V509L218 257H86L32 509Z" />
<glyph unicode="&apos;" glyph-name="quotesingle" horiz-adv-x="273" d="M234 701L198 402H73L36 701H234Z" />
<glyph unicode="(" glyph-name="parenleft" horiz-adv-x="388" d="M363 709Q345 687 319 653T268 570T227 457T209 312Q209 228 225 163T264 48T314 -39T363 -102L260 -209Q219 -172 178 -118T102 3T47 148T25 312Q25 400 50 480T111 625T188 739T260 815L363 709Z" />
<glyph unicode=")" glyph-name="parenright" horiz-adv-x="388" d="M128 814Q159 787 199 738T276 624T338 479T363 311Q363 225 342 147T286 2T210 -119T128 -210L25 -103Q47 -77 74 -41T124 46T163 162T179 311Q179 392 162 456T120 568T70 651T25 708L128 814Z" />
<glyph unicode="," glyph-name="comma" horiz-adv-x="272" d="M-6 -129Q21 -96 40 -62T72 10T88 94T89 196L271 148Q274 51 230 -37T109 -194L-6 -129Z" />
<glyph unicode="-" glyph-name="hyphen" horiz-adv-x="386" d="M47 305H337V172H47V305Z" />
<glyph unicode="." glyph-name="period" horiz-adv-x="258" d="M15 104Q15 123 22 143T44 180T79 207T128 218Q155 218 176 208T213 181T235 144T243 104Q243 59 214 28T128 -4Q103 -4 83 5T47 30T24 64T15 104Z" />
<glyph unicode="0" glyph-name="zero" horiz-adv-x="599" d="M302 -12Q239 -12 187 10T96 78T37 192T15 353Q15 432 35 498T93 612T183 685T297 712Q370 712 424 686T514 612T566 497T584 346Q584 263 566 197T511 84T423 13T302 -12ZM302 143Q319 143 334 157T360
198T377 262T383 346Q383 391 377 428T358 493T330 535T296 551Q282 551 268 538T241 498T221 436T213 353Q213 305 221 266T242 200T271 158T302 143Z" />
<glyph unicode="1" glyph-name="one" horiz-adv-x="496" d="M25 568Q46 578 66 588T106 611T150 645T200 699H378V133H471V0H71V133H171V504L71 457L25 568Z" />
<glyph unicode="2" glyph-name="two" horiz-adv-x="590" d="M33 586Q86 647 152 678T293 710Q343 710 386 695T462 652T512 583T531 491Q531 448 521 417T491 362T441 315T371 267Q353 255 331 239T287 204T248 167T221 133H397V213H565V0H25V145Q46 179 62 202T94
244T129 279T171 315Q198 339 229 359T286 398T330 438T348 482Q348 520 324 534T264 548Q244 548 227 541T194 522T165 498T141 472L33 586Z" />
<glyph unicode="3" glyph-name="three" horiz-adv-x="540" d="M248 -13Q212 -13 177 -4T111 21T55 57T15 100L117 206Q145 178 175 160T249 141Q291 141 315 160T339 218Q339 259 317 275T256 291H181V410H254Q290 410 314 427T339 479Q339 499 331 514T311 538T283
553T251 558Q222 558 191 542T134 498L37 615Q50 630 72 646T123 677T184 700T251 710Q312 710 359 695T439 652T489 585T506 498Q506 472 498 452T479 417T455 390T432 371Q444 362 460 348T490 314T515 268T525 207Q525 151 501 110T437 42T349 1T248 -13Z" />
<glyph unicode="4" glyph-name="four" horiz-adv-x="584" d="M10 340L298 699H505V305H558V197H505V132H559V0H235V132H298V197H10V340ZM298 305V490L150 305H298Z" />
<glyph unicode="5" glyph-name="five" horiz-adv-x="577" d="M263 -13Q225 -13 188 -3T117 24T57 63T15 108L124 221Q153 191 186 169T264 147Q315 147 344 175T374 247Q374 267 366 284T345 315T312 336T272 344Q237 344 216 330T178 298L50 355L111 699H507V550H238L221
453Q236 463 264 470T329 477Q373 477 415 462T489 417T542 343T562 240Q562 177 536 130T467 51T371 3T263 -13Z" />
<glyph unicode="6" glyph-name="six" horiz-adv-x="581" d="M478 501Q452 516 415 534T332 552Q276 550 243 511T201 416Q221 436 256 450T332 467Q380 469 422 454T497 409T547 337T566 244Q566 194 549 149T498 70T416 14T307 -9Q245 -11 193 9T103 70T41 170T16
304Q15 337 18 379T32 466T63 554T116 631T196 686T310 710Q335 711 367 706T431 690T493 665T546 631L478 501ZM306 323Q288 322 272 316T243 302T219 283T203 266Q203 247 208 227T225 189T254 160T296 148Q315 148 332 154T361 173T380 200T387 234Q387 249
383 264T369 293T344 315T306 323Z" />
<glyph unicode="7" glyph-name="seven" horiz-adv-x="566" d="M15 699H556V566L287 0H71L339 566H175V501H15V699Z" />
<glyph unicode="8" glyph-name="eight" horiz-adv-x="559" d="M15 205Q15 229 22 255T44 305T78 349T123 381Q85 404 67 441T48 514Q48 556 64 592T110 654T185 696T286 711Q344 711 388 696T463 655T509 592T525 514Q525 464 500 429T441 378Q492 353 518 305T544
205Q544 159 526 119T473 50T389 4T280 -13Q218 -13 169 4T85 50T33 119T15 205ZM188 211Q188 193 195 178T215 152T245 135T281 129Q318 129 345 149T373 211Q373 237 360 254T327 281T285 295T246 300Q223 287 206 263T188 211ZM359 522Q359 549 337 567T284
585Q255 585 234 566T212 522Q212 501 223 489T249 469T282 459T311 456Q330 465 344 482T359 522Z" />
<glyph unicode="9" glyph-name="nine" horiz-adv-x="587" d="M103 200Q129 185 166 167T249 149Q305 151 338 185T371 285Q351 265 320 251T249 234Q201 232 159 247T84 292T34 364T15 457Q15 507 32 552T83 631T165 687T274 710Q335 712 388 692T481 631T545
531T571 397Q572 359 569 315T554 226T521 140T467 66T385 14T271 -9Q246 -10 214 -5T150 11T88 36T35 70L103 200ZM275 378Q293 379 307 385T333 399T354 417T369 435Q369 454 365 474T351 512T325 541T285 553Q266 553 249 547T220 528T201 501T194 467Q194 452
198 437T212 408T237 386T275 378Z" />
<glyph unicode=":" glyph-name="colon" horiz-adv-x="254" d="M15 98Q15 117 22 136T43 172T78 199T126 210Q153 210 174 200T209 173T231 137T239 98Q239 76 231 57T208 23T172 1T126 -8Q102 -8 82 1T46 25T23 59T15 98ZM15 402Q15 421 22 440T43 476T78 503T126
514Q153 514 174 504T209 477T231 441T239 402Q239 357 210 327T126 296Q103 296 83 305T47 329T24 363T15 402Z" />
<glyph unicode=";" glyph-name="semicolon" horiz-adv-x="302" d="M59 385Q59 404 66 424T88 461T123 488T172 499Q199 499 220 489T257 462T279 425T287 385Q287 340 257 309T172 277Q148 277 128 286T92 311T68 345T59 385ZM5 -129Q32 -96 51 -62T83 10T99 94T100
196L282 148Q285 51 241 -37T120 -194L5 -129Z" />
<glyph unicode="=" glyph-name="equal" horiz-adv-x="502" d="M44 305H456V172H44V305ZM44 526H456V393H44V526Z" />
<glyph unicode="?" glyph-name="question" horiz-adv-x="520" d="M2 586Q55 647 121 681T262 715Q312 715 355 702T431 663T481 599T500 510Q500 477 488 453T459 408T421 373T383 344T353 317T341 288V233H156L155 313Q155 336 167 356T196 393T234 426T272 456T302
484T314 512Q314 526 308 535T291 549T267 557T240 559Q224 559 207 552T172 533T139 507T110 477L2 586ZM129 102Q129 82 137 64T161 31T198 8T243 -1Q298 -1 330 29T362 102Q362 123 354 142T329 176T292 199T243 208Q216 208 195 199T159 174T137 140T129 102Z"
/>
<glyph unicode="@" glyph-name="at" horiz-adv-x="833" />
<glyph unicode="A" glyph-name="A" horiz-adv-x="823" d="M808 0H407V131H502L481 199H276L255 131H333V0H15V131H83L218 570H177V699H561L738 131H808V0ZM313 319H444L378 535L313 319Z" />
<glyph unicode="B" glyph-name="B" horiz-adv-x="687" d="M25 0V130H83V570H25V699H398Q523 699 583 655T643 528Q643 496 638 473T622 431T592 398T545 373Q572 365 596 352T638 317T666 268T677 203Q677 97 614 49T405 0H25ZM370 130Q402 130 426 152T451 216Q451
254 430 279T367 304H290V130H370ZM290 567V417H351Q391 417 405 437T419 494Q419 529 401 548T353 567H290Z" />
<glyph unicode="C" glyph-name="C" horiz-adv-x="686" d="M671 125Q645 97 613 72T543 27T461 -4T368 -16Q288 -16 223 8T112 79T41 192T15 343Q15 429 44 497T118 613T216 686T319 711Q356 711 383 702T430 682T459 659T473 643L496 699H653V415H474Q473 439
466 462T447 502T415 530T368 541Q341 541 319 526T282 483T258 420T249 343Q249 306 258 272T286 212T332 171T395 155Q426 155 454 169T503 200T537 233T554 253L671 125Z" />
<glyph unicode="D" glyph-name="D" horiz-adv-x="720" d="M25 0V133H87V567H25V699H330Q421 699 491 673T610 601T684 493T710 359Q710 187 611 94T326 0H25ZM480 359Q480 399 472 436T445 503T399 549T330 567H292V133H330Q370 134 398 151T445 199T471 271T480 359Z" />
<glyph unicode="E" glyph-name="E" horiz-adv-x="653" d="M25 699H628V478H455V567H295V429H485V296H295V133H455V226H628V0H25V133H88V567H25V699Z" />
<glyph unicode="F" glyph-name="F" horiz-adv-x="638" d="M25 699H623V478H446V567H295V393H485V260H295V133H397V0H25V133H87V567H25V699Z" />
<glyph unicode="G" glyph-name="G" horiz-adv-x="776" d="M490 63Q473 35 430 13T329 -9Q263 -9 206 15T107 86T40 197T15 343Q15 425 41 492T110 608T208 684T322 711Q376 711 411 700T467 675T500 647T517 627L538 699H687V404H508Q507 434 498 458T472 498T436
522T394 531Q364 531 339 516T295 475T267 415T257 343Q257 305 266 272T292 213T335 174T394 159Q437 159 458 173T490 208V250H429V357H761V250H721V0H521L490 63Z" />
<glyph unicode="H" glyph-name="H" horiz-adv-x="768" d="M25 699H349V567H287V416H477V567H418V699H743V567H685V132H743V0H418V132H477V283H287V132H349V0H25V132H80V567H25V699Z" />
<glyph unicode="I" glyph-name="I" horiz-adv-x="382" d="M25 699H357V567H295V133H357V0H25V133H88V567H25V699Z" />
<glyph unicode="J" glyph-name="J" horiz-adv-x="463" d="M20 -61Q39 -70 65 -70Q102 -70 125 -38T148 74V568H62V699H438V568H355V74Q355 8 340 -44T292 -131T204 -185T73 -204Q59 -204 46 -201T21 -193L20 -61Z" />
<glyph unicode="K" glyph-name="K" horiz-adv-x="815" d="M340 570H286V407L472 570H400V699H733V570H675L530 445L732 130H790V0H400V130H468L360 300L286 237V130H340V0H25V130H79V570H25V699H340V570Z" />
<glyph unicode="L" glyph-name="L" horiz-adv-x="610" d="M25 699H341V567H288V133H417V260H585V0H25V133H80V567H25V699Z" />
<glyph unicode="M" glyph-name="M" horiz-adv-x="1008" d="M719 523Q716 506 712 486T704 448T697 414T690 389L585 0H376Q348 100 320 199T264 399Q262 405 259 418T253 449T247 485T243 523H239V129H296V0H25V129H79V570H26V699H405L506 325L602 699H983V570H928V130H983V0H667V130H724L723
464V523H719Z" />
<glyph unicode="N" glyph-name="N" horiz-adv-x="816" d="M791 570H725V0H510L255 381V129H332V0H25V129H84V570H26V699H313L559 332L558 570H490V699H791V570Z" />
<glyph unicode="O" glyph-name="O" horiz-adv-x="740" d="M373 -18Q295 -18 229 5T116 74T42 189T15 353Q15 434 40 501T112 616T223 691T366 718Q458 718 525 692T637 617T703 499T725 346Q725 261 702 194T634 79T524 7T373 -18ZM373 139Q397 139 415 154T447
196T468 261T475 346Q475 391 469 431T449 500T415 547T365 564Q342 564 323 549T291 505T270 438T262 353Q262 304 270 265T293 197T328 154T373 139Z" />
<glyph unicode="P" glyph-name="P" horiz-adv-x="640" d="M25 699H349Q436 699 490 682T574 635T614 567T625 485Q625 435 604 398T547 337T464 300T362 287H286V132H347V0H25V132H81V568H25V699ZM286 569V395H331Q375 395 402 416T429 478Q429 523 405 546T336 569H286Z" />
<glyph unicode="Q" glyph-name="Q" horiz-adv-x="755" d="M357 0Q281 0 218 22T110 88T40 199T15 354Q15 430 39 494T107 604T214 676T351 702Q439 702 503 677T610 605T672 493T693 347Q693 188 610 97Q616 74 625 53T654 32Q667 32 670 48T674 77V106H740V55Q740
22 731 -7T703 -58T656 -92T590 -105Q559 -105 534 -96T490 -72T457 -36T435 6Q399 0 357 0ZM357 347Q389 347 417 336T469 308Q470 317 470 326T471 347Q471 390 463 428T438 494T400 539T350 556Q327 556 307 541T270 499T245 435T235 354Q235 322 239 299Q256
317 284 332T357 347ZM357 150Q385 150 410 172Q405 210 394 233T357 256Q332 256 317 235T290 183Q320 150 357 150Z" />
<glyph unicode="R" glyph-name="R" horiz-adv-x="737" d="M25 699H350Q437 699 491 683T575 639T616 574T627 493Q627 464 616 439T586 396T540 365T482 348Q508 344 531 332T573 300T602 257T613 206Q613 174 618 156T637 138Q660 138 660 170V203H727V148Q727
117 720 88T696 37T651 2T581 -12Q482 -12 435 37T387 174Q387 208 384 230T371 264T340 282T287 287V132H348V0H25V132H81V568H25V699ZM287 569V399H332Q376 399 402 419T428 480Q428 525 405 547T337 569H287Z" />
<glyph unicode="S" glyph-name="S" horiz-adv-x="710" d="M25 0V252H211Q211 220 225 201T258 172T299 157T337 152Q350 152 365 154T392 161T413 176T422 202Q422 221 394 233T323 258T230 285T138 328T67 396T38 502Q38 557 61 598T120 665T197 704T276 717Q307
717 338 712T397 694T447 663T485 615L495 699H667V448H486Q486 476 476 497T449 534T408 556T358 564Q347 564 335 561T313 551T296 534T289 511Q289 485 318 468T392 436T487 404T582 360T655 295T685 197Q685 138 661 98T598 33T512 -4T420 -15Q382 -15 350
-7T292 14T246 43T211 77L200 0H25Z" />
<glyph unicode="T" glyph-name="T" horiz-adv-x="701" d="M686 699V439H539V567H455V133H538V0H166V133H248V567H162V439H15V699H686Z" />
<glyph unicode="U" glyph-name="U" horiz-adv-x="737" d="M15 699H333V570H279V354Q279 294 285 256T305 197T336 167T379 159Q402 159 420 165T452 192T473 251T480 355V567H426V699H722V570H668V327Q668 149 595 66T381 -17Q229 -12 150 69T71 322V569H15V699Z" />
<glyph unicode="V" glyph-name="V" horiz-adv-x="773" d="M425 224Q427 245 436 279T461 351L552 569H500L499 699H783V569H734L494 0H310L45 569H-10V699H359L358 569H304L389 345Q401 308 409 277T420 224H425Z" />
<glyph unicode="W" glyph-name="W" horiz-adv-x="1015" d="M325 226Q326 236 331 263T343 325T358 399T374 474L424 699H632L695 423Q700 399 705 372T713 319T720 269T725 226H730Q731 243 735 269T743 322T752 375T760 417L794 569H739V699H1025V569H970L821
0H584L524 238Q521 251 517 267T510 301T504 334T499 362H495Q493 351 491 335T485 301T478 267T471 240L410 0H178L46 569H-10V699H320V569H262L288 423Q292 405 297 376T306 318T314 263T320 226H325Z" />
<glyph unicode="X" glyph-name="X" horiz-adv-x="835" d="M357 0H25V129H112L259 320L78 569H26V699H422V569H364L462 436L564 569H476V699H808V569H723L572 376L752 130H810V0H411V130H468L392 232L371 260L268 129H357V0Z" />
<glyph unicode="Y" glyph-name="Y" horiz-adv-x="669" d="M373 384Q374 391 378 402T388 425T400 449T410 470L465 571H410V699H679V571H625L440 246V130H496V0H176V130H233V248L39 571H-10V699H332V571H280L338 465Q340 458 344 447T354 424T363 401T369 384H373Z" />
<glyph unicode="Z" glyph-name="Z" horiz-adv-x="714" d="M31 436V699H687L689 566L323 132H508L509 260H686V0H25V130L389 567L200 566L201 436H31Z" />
<glyph unicode="[" glyph-name="bracketleft" horiz-adv-x="720" d="M29 700H353Q440 700 494 681T578 629T618 556T629 472Q629 416 599 375T521 307L633 130H691V0H499L333 268H290V132H351V0H29V132H85V568H29V700ZM290 569V395H335Q379 395 406 416T433 478Q433
523 409 546T340 569H290Z" />
<glyph unicode="\" glyph-name="backslash" horiz-adv-x="653" />
<glyph unicode="]" glyph-name="bracketright" horiz-adv-x="647" d="M30 0V130H71V619H30V750H261V298L377 367H305V500H585V367H508L445 330L584 131H625V0H463L295 239L260 215V131H331V0H30Z" />
<glyph unicode="a" glyph-name="a" horiz-adv-x="600" d="M36 458Q51 467 74 479T125 502T186 521T254 529Q299 529 347 520T434 487T499 423T525 323V128H585V0H371L347 45Q333 26 316 14T280 -6T243 -16T212 -19Q176 -19 141 -9T78 21T33 72T15 148Q15 190 31
224T76 282T143 319T223 332Q245 332 262 328T292 317T312 305T322 297V332Q322 366 295 377T227 388Q182 388 145 373T78 342L36 458ZM258 111Q281 111 298 122T322 144V182Q321 184 318 188T307 198T290 207T263 211Q233 211 219 196T205 158Q205 137 220 124T258
111Z" />
<glyph unicode="b" glyph-name="b" horiz-adv-x="656" d="M31 0V130H73V619H31V750H273V461Q281 471 295 479T328 494T366 504T404 508Q461 508 504 486T577 428T620 344T634 246Q633 188 617 141T570 60T498 8T403 -11Q374 -11 354 -8T319 2T293 17T271 34L256
0H31ZM414 244Q414 266 409 288T395 328T372 356T342 367Q327 367 314 358T290 333T275 293T271 239Q271 213 277 192T293 154T316 128T343 119Q375 119 394 153T414 244Z" />
<glyph unicode="c" glyph-name="c" horiz-adv-x="531" d="M360 274Q359 292 356 310T345 344T326 369T297 379Q275 379 259 368T231 339T215 298T209 251Q209 202 236 168T312 133Q352 132 380 147T433 190L521 88Q503 69 478 51T422 18T353 -5T276 -14Q221 -14
171 2T84 52T24 136T1 253Q1 319 21 367T76 447T154 494T247 509Q272 509 292 503T328 488T355 469T372 452L389 500H507V274H360V274Z" />
<glyph unicode="d" glyph-name="d" horiz-adv-x="634" d="M368 620H322V750H571V130H619V0H385L368 37Q363 32 353 25T326 10T289 -3T242 -9Q189 -9 146 12T73 70T27 155T10 255Q10 313 29 360T80 441T154 492T242 510Q295 510 324 496T368 472V620ZM225 255Q225
232 230 210T244 171T267 143T297 132Q312 132 325 141T349 166T364 206T368 260Q368 285 362 307T346 345T323 371T296 380Q264 380 245 346T225 255Z" />
<glyph unicode="e" glyph-name="e" horiz-adv-x="542" d="M527 69Q471 21 409 2T269 -18Q222 -18 175 -3T91 45T29 129T5 253Q5 314 26 362T83 445T168 496T274 514Q319 514 357 503T427 473T480 427T513 369Q517 356 521 336T526 293T526 246T515 200H200Q202
190 206 176T222 149T252 127T303 118Q316 118 331 119T365 125T403 139T443 166L527 69ZM280 379Q257 379 243 370T220 349T208 322T203 299H354Q354 313 351 327T341 353T319 372T280 379Z" />
<glyph unicode="f" glyph-name="f" horiz-adv-x="386" d="M351 628Q343 632 330 635T296 638Q264 638 264 585V500H355V370H264V131H324V0H26V131H66V370H25V500H66V585Q66 606 71 637T97 698T157 747T264 768Q283 768 305 766T347 761T384 753T411 743L351 628Z" />
<glyph unicode="g" glyph-name="g" horiz-adv-x="640" d="M77 -6Q86 -14 103 -24T144 -45T194 -63T251 -70Q285 -70 307 -61T342 -39T361 -9T367 24V58Q362 51 352 42T328 24T294 9T250 3Q185 3 140 24T66 81T24 161T10 253Q10 311 26 358T73 439T152 491T261
510Q294 510 323 497T367 469L387 500H625V369H565V70Q565 8 546 -42T488 -129T391 -185T253 -205Q212 -205 177 -196T112 -174T60 -146T24 -117L77 -6ZM223 255Q223 232 228 210T242 171T265 143T295 132Q310 132 323 141T347 166T362 206T366 260Q366 285 360
307T344 345T321 371T294 380Q262 380 243 346T223 255Z" />
<glyph unicode="h" glyph-name="h" horiz-adv-x="661" d="M339 0H25V131H67V620H25V750H267V438Q271 445 286 458T322 484T370 508T424 518Q482 518 516 499T569 448T593 377T599 298V131H646V0H389V272Q389 285 388 301T382 331T364 355T330 365Q311 365 299
357T279 335T270 305T267 272V131H339V0Z" />
<glyph unicode="i" glyph-name="i" horiz-adv-x="330" d="M305 0H25V131H67V370H25V500H257V131H305V0ZM53 646Q53 663 60 681T80 714T114 738T161 748Q187 748 207 739T242 714T263 681T271 646Q271 604 243 575T161 545Q137 545 118 554T84 577T61 610T53 646Z" />
<glyph unicode="j" glyph-name="j" horiz-adv-x="360" d="M128 370H86V500H318V70Q318 23 308 -26T266 -116T174 -183T14 -209V-75Q57 -75 80 -59T114 -21T126 27T128 70V370ZM114 646Q114 663 121 681T141 714T175 738T222 748Q248 748 268 739T303 714T324 681T332
646Q332 604 304 575T222 545Q198 545 179 554T145 577T122 610T114 646Z" />
<glyph unicode="k" glyph-name="k" horiz-adv-x="654" d="M38 0V130H79V619H38V750H269V298L385 367H313V499H593V367H516L448 324L583 131H633V0H337V131H379L303 239L268 215V131H305V0H38Z" />
<glyph unicode="l" glyph-name="l" horiz-adv-x="332" d="M317 0H25V131H68V621H26V750H258V131H317V0Z" />
<glyph unicode="m" glyph-name="m" horiz-adv-x="908" d="M322 0H25V131H67V367H25V499H214L236 440Q242 447 253 459T281 484T317 504T361 513Q399 513 424 505T467 486T494 463T510 441Q533 467 569 490T657 513Q718 513 754 493T811 439T837 362T844 273V135H893V0H639V245Q639
263 639 284T638 325T627 356T601 369Q569 369 559 349T548 296V134H608V0H349V255Q349 316 343 342T307 369Q283 369 273 355T262 309V131H322V0Z" />
<glyph unicode="n" glyph-name="n" horiz-adv-x="647" d="M333 0H25V131H67V370H25V500H238L261 438Q287 473 321 495T404 518Q462 518 497 499T552 448T578 377T585 298V131H632V0H380V273Q380 286 380 302T374 332T358 356T324 366Q305 366 293 358T273 336T264
306T261 273V131H333V0Z" />
<glyph unicode="o" glyph-name="o" horiz-adv-x="574" d="M290 -13Q236 -13 186 3T96 53T34 136T11 252Q11 315 34 363T96 445T184 495T285 512Q344 511 394 494T482 442T540 360T563 248Q564 186 543 138T484 56T397 5T290 -13ZM290 115Q306 115 318 125T340
153T353 195T358 248Q358 305 339 343T285 382Q270 382 258 372T236 344T222 302T216 251Q216 189 237 152T290 115Z" />
<glyph unicode="p" glyph-name="p" horiz-adv-x="638" d="M413 244Q413 266 408 288T394 328T371 356T341 367Q326 367 313 358T289 333T274 293T270 239Q270 213 276 192T292 154T315 128T342 119Q374 119 393 153T413 244ZM25 -73H67V367H25V500H254L271 465Q278
470 289 477T316 491T350 503T392 508Q450 508 494 487T568 430T613 347T628 246Q628 186 611 139T563 58T490 7T400 -11Q369 -11 346 -6T307 6T282 19T270 28V-73H324V-204H25V-73Z" />
<glyph unicode="q" glyph-name="q" horiz-adv-x="660" d="M383 257Q383 279 378 301T364 341T341 369T311 380Q296 380 283 371T259 346T244 306T240 252Q240 226 246 205T262 167T285 141T312 132Q344 132 363 166T383 257ZM318 -99H383V33Q366 19 333 5T255
-9Q207 -9 165 9T92 62T43 144T25 253Q25 318 43 366T94 446T170 494T264 510Q313 510 344 495T383 470L402 500H635V370H586V-96H635V-230H318V-99Z" />
<glyph unicode="r" glyph-name="r" horiz-adv-x="414" d="M308 0H25V131H69V370H26V500H214L244 436Q254 454 265 470T293 498T335 518T399 525V345Q331 345 295 323T258 234V131H308V0Z" />
<glyph unicode="s" glyph-name="s" horiz-adv-x="508" d="M15 0V180H149Q149 160 161 147T191 127T226 116T255 113Q270 113 284 119T299 147Q299 158 286 165T253 179T206 191T152 207Q126 216 103 229T60 261T30 306T19 367Q19 405 36 432T80 477T137 503T195
512Q246 512 287 489T344 434L352 500H475V320H345Q345 336 336 349T313 373T280 390T243 396Q227 396 216 388T204 360Q204 349 214 342T241 327T281 313T327 298Q355 288 384 277T436 248T473 204T488 138Q488 103 473 75T432 28T372 -2T302 -12Q248 -12 208
10T149 61L140 0H15Z" />
<glyph unicode="t" glyph-name="t" horiz-adv-x="363" d="M15 500H69V592L253 651V500H348V370H253V192Q253 179 253 165T254 139T263 120T285 112Q295 112 314 117T348 129V1Q337 -4 320 -7T285 -13T252 -16T227 -18Q171 -18 140 -3T93 39T74 105T69 192V370H15V500Z" />
<glyph unicode="u" glyph-name="u" horiz-adv-x="631" d="M15 500H257V259Q257 194 268 164T311 133Q337 133 355 154T374 209V368H308V500H567V133H616V0H427L400 63Q392 54 381 41T353 15T313 -5T258 -14Q201 -14 163 1T101 46T67 122T57 230V368H15V500Z" />
<glyph unicode="v" glyph-name="v" horiz-adv-x="613" d="M330 162Q330 170 332 182T339 210T348 241T360 272L408 373H355V500H613V373H561L388 0H233L47 373H0V500H304V373H254L300 267Q310 238 317 208T326 162H330Z" />
<glyph unicode="w" glyph-name="w" horiz-adv-x="872" d="M284 153Q285 168 287 193T294 249T306 315T325 388L357 500H542L580 370Q589 341 596 309T609 246T617 191T623 153H625Q626 165 628 183T634 224T641 268T652 311L669 370H628V500H872V370H831L714 0H503L434
226L362 0H156L43 370H0V500H269V370H235L257 297Q262 279 266 259T274 218T279 181T282 153H284Z" />
<glyph unicode="x" glyph-name="x" horiz-adv-x="649" d="M375 500H630V375H564L458 268L584 124H631V0H312V124H359L283 205L211 124H276V0H20V124H87L189 239L65 375H20V500H344V375H297L367 299L442 375H375V500Z" />
<glyph unicode="y" glyph-name="y" horiz-adv-x="580" d="M382 373H336V500H590V376H542L352 -86Q341 -109 327 -134T288 -180T228 -214T137 -227Q98 -225 69 -211T16 -177L91 -59Q104 -70 118 -80T149 -93Q161 -95 171 -92T189 -80T203 -62T213 -40L227 2L32
372H-9V500H299V373H252L317 217L382 373Z" />
<glyph unicode="z" glyph-name="z" horiz-adv-x="553" d="M25 300V500H520V371L282 131H387V199H528V0H25V131L266 371H155V300H25Z" />
<glyph unicode="&#xa0;" glyph-name="space" horiz-adv-x="250" />
<glyph unicode="&#x2da;" glyph-name="ring" horiz-adv-x="833" />
<glyph unicode="&#x2013;" glyph-name="endash" horiz-adv-x="447" d="M32 305H409V172H32V305Z" />
<glyph unicode="&#x2014;" glyph-name="emdash" horiz-adv-x="631" d="M42 305H581V172H42V305Z" />
<glyph unicode="&#x2022;" glyph-name="bullet" horiz-adv-x="348" d="M60 322Q60 341 67 361T89 398T124 425T173 436Q200 436 221 426T258 399T280 362T288 322Q288 277 259 246T173 214Q148 214 128 223T92 248T69 282T60 322Z" />
</font>
</defs>
</svg>
